P3
4 4
255
0 0 0 0 0 100 0 0 0 255 0 255
0 0 0 175 255 0 0 0 0 0 0 0
0 0 0 0 0 0 175 15 0 0 0 0
255 0 255 0 0 0 0 0 0 255 255 255
